<?xml version="1.0" encoding="UTF-8" standalone="no"?>
<!-- Created with Inkscape (http://www.inkscape.org/) -->

<svg
   xmlns:dc="http://purl.org/dc/elements/1.1/"
   xmlns:cc="http://creativecommons.org/ns#"
   xmlns:rdf="http://www.w3.org/1999/02/22-rdf-syntax-ns#"
   xmlns:svg="http://www.w3.org/2000/svg"
   xmlns="http://www.w3.org/2000/svg"
   xmlns:xlink="http://www.w3.org/1999/xlink"
   xmlns:sodipodi="http://sodipodi.sourceforge.net/DTD/sodipodi-0.dtd"
   xmlns:inkscape="http://www.inkscape.org/namespaces/inkscape"
   width="512"
   height="512"
   id="svg2"
   version="1.1"
   inkscape:version="0.48.0 r9654"
   sodipodi:docname="metior.svg"
   inkscape:export-filename="/Users/koraktor/open-source/metior-pages/graphics/metior.png"
   inkscape:export-xdpi="45"
   inkscape:export-ydpi="45">
  <title
     id="title3234">Metior Logo</title>
  <defs
     id="defs4">
    <linearGradient
       id="linearGradient4517">
      <stop
         style="stop-color:#505040;stop-opacity:1;"
         offset="0"
         id="stop4519" />
      <stop
         id="stop4527"
         offset="0.5"
         style="stop-color:#44442b;stop-opacity:0.49803922;" />
      <stop
         style="stop-color:#000000;stop-opacity:1;"
         offset="1"
         id="stop4521" />
    </linearGradient>
    <filter
       inkscape:collect="always"
       id="filter4233"
       inkscape:menu-tooltip="Partly opaque water color effect with bleed"
       inkscape:menu="Textures"
       inkscape:label="Gouache"
       color-interpolation-filters="sRGB">
      <feGaussianBlur
         inkscape:collect="always"
         stdDeviation="0.6003981"
         id="feGaussianBlur4235"
         result="fbSourceGraphic" />
      <feColorMatrix
         result="fbSourceGraphicAlpha"
         in="fbSourceGraphic"
         values="0 0 0 -1 0 0 0 0 -1 0 0 0 0 -1 0 0 0 0 1 0"
         id="feColorMatrix4237" />
      <feGaussianBlur
         id="feGaussianBlur4239"
         stdDeviation="3"
         result="result5"
         in="fbSourceGraphic" />
      <feTurbulence
         id="feTurbulence4241"
         result="result1"
         baseFrequency="0.02"
         type="fractalNoise"
         seed="0"
         numOctaves="3" />
      <feDisplacementMap
         id="feDisplacementMap4243"
         in2="result1"
         result="result3"
         in="fbSourceGraphic"
         xChannelSelector="R"
         yChannelSelector="G"
         scale="30" />
      <feComposite
         id="feComposite4245"
         in2="result1"
         result="result4"
         in="result3"
         operator="out" />
      <feComposite
         id="feComposite4247"
         in2="result4"
         result="result6"
         operator="arithmetic"
         k2="1"
         k1="0.3"
         k3="0.3" />
      <feComposite
         id="feComposite4249"
         in2="result5"
         in="result6"
         operator="over" />
    </filter>
    <filter
       id="filter4355"
       inkscape:label="Torn edges"
       inkscape:menu="Distort"
       inkscape:menu-tooltip="Displace the outside of shapes and pictures without altering their content"
       height="1.4"
       y="-0.2"
       width="1.4"
       x="-0.2"
       color-interpolation-filters="sRGB">
      <feTurbulence
         id="feTurbulence4357"
         baseFrequency="0.05"
         numOctaves="5"
         type="fractalNoise"
         result="result91" />
      <feDisplacementMap
         id="feDisplacementMap4359"
         in2="result91"
         scale="25"
         result="result5"
         xChannelSelector="R"
         in="SourceGraphic" />
      <feComposite
         id="feComposite4361"
         in2="result5"
         in="SourceGraphic"
         operator="atop" />
    </filter>
    <filter
       inkscape:collect="always"
       id="filter4497"
       inkscape:label="Torn edges"
       inkscape:menu="Distort"
       inkscape:menu-tooltip="Displace the outside of shapes and pictures without altering their content"
       height="1.4"
       y="-0.2"
       width="1.4"
       x="-0.2"
       color-interpolation-filters="sRGB">
      <feGaussianBlur
         inkscape:collect="always"
         stdDeviation="7.2808692"
         id="feGaussianBlur4499"
         result="fbSourceGraphic" />
      <feColorMatrix
         result="fbSourceGraphicAlpha"
         in="fbSourceGraphic"
         values="0 0 0 -1 0 0 0 0 -1 0 0 0 0 -1 0 0 0 0 1 0"
         id="feColorMatrix4581" />
      <feTurbulence
         id="feTurbulence4583"
         baseFrequency="0.05"
         numOctaves="5"
         type="fractalNoise"
         result="result91"
         in="fbSourceGraphic" />
      <feDisplacementMap
         id="feDisplacementMap4585"
         in2="result91"
         scale="25"
         result="result5"
         xChannelSelector="R"
         in="fbSourceGraphic" />
      <feComposite
         id="feComposite4587"
         in2="result5"
         in="fbSourceGraphic"
         operator="atop" />
    </filter>
    <filter
       inkscape:collect="always"
       id="filter4501"
       inkscape:label="Torn edges"
       inkscape:menu="Distort"
       inkscape:menu-tooltip="Displace the outside of shapes and pictures without altering their content"
       height="1.4"
       y="-0.2"
       width="1.4"
       x="-0.2"
       color-interpolation-filters="sRGB">
      <feGaussianBlur
         inkscape:collect="always"
         stdDeviation="1.8202173"
         id="feGaussianBlur4503"
         result="fbSourceGraphic" />
      <feColorMatrix
         result="fbSourceGraphicAlpha"
         in="fbSourceGraphic"
         values="0 0 0 -1 0 0 0 0 -1 0 0 0 0 -1 0 0 0 0 1 0"
         id="feColorMatrix4573" />
      <feTurbulence
         id="feTurbulence4575"
         baseFrequency="0.05"
         numOctaves="5"
         type="fractalNoise"
         result="result91"
         in="fbSourceGraphic" />
      <feDisplacementMap
         id="feDisplacementMap4577"
         in2="result91"
         scale="25"
         result="result5"
         xChannelSelector="R"
         in="fbSourceGraphic" />
      <feComposite
         id="feComposite4579"
         in2="result5"
         in="fbSourceGraphic"
         operator="atop" />
    </filter>
    <filter
       inkscape:collect="always"
       id="filter4509"
       inkscape:label="Torn edges"
       inkscape:menu="Distort"
       inkscape:menu-tooltip="Displace the outside of shapes and pictures without altering their content"
       height="1.4"
       y="-0.2"
       width="1.4"
       x="-0.2"
       color-interpolation-filters="sRGB">
      <feGaussianBlur
         inkscape:collect="always"
         stdDeviation="0.91010865"
         id="feGaussianBlur4511"
         result="fbSourceGraphic" />
      <feColorMatrix
         result="fbSourceGraphicAlpha"
         in="fbSourceGraphic"
         values="0 0 0 -1 0 0 0 0 -1 0 0 0 0 -1 0 0 0 0 1 0"
         id="feColorMatrix4589" />
      <feTurbulence
         id="feTurbulence4591"
         baseFrequency="0.05"
         numOctaves="5"
         type="fractalNoise"
         result="result91"
         in="fbSourceGraphic" />
      <feDisplacementMap
         id="feDisplacementMap4593"
         in2="result91"
         scale="25"
         result="result5"
         xChannelSelector="R"
         in="fbSourceGraphic" />
      <feComposite
         id="feComposite4595"
         in2="result5"
         in="fbSourceGraphic"
         operator="atop" />
    </filter>
    <radialGradient
       inkscape:collect="always"
       xlink:href="#linearGradient4517"
       id="radialGradient4525"
       cx="205.52115"
       cy="905.6026"
       fx="205.52115"
       fy="905.6026"
       r="190.1992"
       gradientTransform="matrix(1,0,0,0.6539522,12,310.38178)"
       gradientUnits="userSpaceOnUse" />
    <filter
       id="filter4529"
       inkscape:label="Torn edges"
       inkscape:menu="Distort"
       inkscape:menu-tooltip="Displace the outside of shapes and pictures without altering their content"
       height="1.4"
       y="-0.2"
       width="1.4"
       x="-0.2"
       color-interpolation-filters="sRGB">
      <feTurbulence
         id="feTurbulence4531"
         baseFrequency="0.05"
         numOctaves="5"
         type="fractalNoise"
         result="result91" />
      <feDisplacementMap
         id="feDisplacementMap4533"
         in2="result91"
         scale="25"
         result="result5"
         xChannelSelector="R"
         in="SourceGraphic" />
      <feComposite
         id="feComposite4535"
         in2="result5"
         in="SourceGraphic"
         operator="atop" />
    </filter>
  </defs>
  <sodipodi:namedview
     id="base"
     pagecolor="#ffffff"
     bordercolor="#666666"
     borderopacity="1.0"
     inkscape:pageopacity="0.0"
     inkscape:pageshadow="2"
     inkscape:zoom="1"
     inkscape:cx="228.09599"
     inkscape:cy="228.09599"
     inkscape:document-units="px"
     inkscape:current-layer="layer1"
     showgrid="false"
     inkscape:window-width="1680"
     inkscape:window-height="954"
     inkscape:window-x="0"
     inkscape:window-y="0"
     inkscape:window-maximized="1" />
  <metadata
     id="metadata7">
    <rdf:RDF>
      <cc:Work
         rdf:about="">
        <dc:format>image/svg+xml</dc:format>
        <dc:type
           rdf:resource="http://purl.org/dc/dcmitype/StillImage" />
        <dc:title>Metior Logo</dc:title>
        <cc:license
           rdf:resource="http://www.opensource.org/licenses/bsd-license.php" />
        <dc:date>06/05/2011</dc:date>
        <dc:creator>
          <cc:Agent>
            <dc:title>Sebastian Staudt</dc:title>
          </cc:Agent>
        </dc:creator>
      </cc:Work>
    </rdf:RDF>
  </metadata>
  <g
     inkscape:label="Ebene 1"
     inkscape:groupmode="layer"
     id="layer1"
     transform="translate(0,-540.36218)">
    <path
       style="opacity:0.34276733;fill:#e60000;fill-opacity:1;stroke:none;filter:url(#filter4355)"
       d="m 148.11611,992.78817 c -1.0225,0 -2.13311,0.4153 -3.06748,0 -1.05711,-0.4698 -1.50628,-1.7906 -2.45398,-2.454 -1.12384,-0.7867 -2.52363,-1.104 -3.68099,-1.8405 -2.05973,-1.3107 -3.25819,-2.6447 -4.90797,-4.2945 -0.818,-0.818 -1.57566,-1.7011 -2.45399,-2.454 -0.55982,-0.4798 -1.31912,-0.7056 -1.84049,-1.227 -0.32334,-0.3233 -0.29015,-0.9036 -0.6135,-1.227 -0.32334,-0.3233 -0.84652,-0.3598 -1.22699,-0.6135 -0.24063,-0.1604 -0.48416,-0.3548 -0.6135,-0.6135 -0.0915,-0.1829 0.18291,-0.522 0,-0.6135 -0.36582,-0.1829 -0.83898,0.1294 -1.22699,0 -0.27436,-0.091 -0.35482,-0.48413 -0.6135,-0.61347 -0.18291,-0.0915 -0.44334,0.11344 -0.61349,0 -0.48127,-0.32084 -0.818,-0.81799 -1.227,-1.22699 -0.409,-0.409 -0.81799,-0.818 -1.22699,-1.227 -0.409,-0.40899 -0.818,-0.81799 -1.227,-1.22699 -0.40899,-0.409 -0.8567,-0.78265 -1.22699,-1.22699 -1.26827,-1.52193 -2.00496,-2.7007 -3.06748,-4.29448 -0.409,-0.6135 -0.84764,-1.20824 -1.227,-1.84049 -1.14688,-1.91147 -0.0315,-0.80623 -1.84049,-3.06749 -0.36133,-0.45166 -0.81799,-0.81799 -1.22699,-1.22699 -0.2045,-0.2045 -0.45308,-0.37286 -0.6135,-0.6135 -0.25365,-0.38047 -0.409,-0.81799 -0.6135,-1.22699 -0.2045,-0.409 -0.40899,-0.818 -0.61349,-1.227 -0.2045,-0.40899 -0.35985,-0.84651 -0.6135,-1.22699 -1.01736,-1.52603 -0.14097,-0.0705 -1.22699,-0.6135 -0.51735,-0.25867 -0.70965,-0.96832 -1.227,-1.22699 -0.18291,-0.0915 -0.52204,0.18291 -0.6135,0 -0.86809,-1.73619 1.33638,-0.98603 -1.22699,-1.84049 -0.194,-0.0647 -0.409,0 -0.6135,0 -0.20449,0 -0.40899,0 -0.61349,0 -0.2045,0 -0.4499,0.1227 -0.6135,0 -0.69409,-0.52057 -1.27585,-1.18175 -1.84049,-1.84049 -0.66543,-0.77634 -1.18591,-1.66849 -1.84049,-2.45399 -0.37029,-0.44435 -0.86567,-0.77533 -1.227,-1.22699 -0.460603,-0.57576 -0.754963,-1.27406 -1.226993,-1.84049 -1.11087,-1.33305 -2.55171,-2.3635 -3.68098,-3.68099 -1.35657,-1.18584 -1.94129,-2.94305 -3.06749,-4.29447 -5.964277,-5.96429 0.55054,0.93854 -2.45398,-3.06749 -0.34705,-0.46273 -0.817999,-0.818 -1.226997,-1.22699 -0.204499,-0.2045 -0.439973,-0.38214 -0.613496,-0.6135 -0.442399,-0.58987 -0.817996,-1.22699 -1.226994,-1.84049 -0.408998,-0.6135 -0.861175,-1.20031 -1.226994,-1.84049 -0.453743,-0.79405 -0.742285,-1.67845 -1.226994,-2.45399 -0.0095,-0.0151 -3.665866,-4.8853 -3.680982,-4.90797 -0.253649,-0.38048 -0.378231,-0.83489 -0.613497,-1.227 -0.379354,-0.63226 -0.897249,-1.181 -1.226993,-1.84049 -0.01206,-0.0241 -1.208999,-3.63899 -1.226994,-3.68098 -0.360258,-0.8406 -1.028601,-1.56122 -1.226994,-2.45399 -0.22181,-0.99815 0.168097,-2.0589 0,-3.06748 -0.244753,-1.46852 -0.95263,-2.83121 -1.226994,-4.29448 -0.341269,-1.8201 -0.368754,-3.6859 -0.613497,-5.52147 -0.164401,-1.23301 -0.42435,-2.45153 -0.613497,-3.68099 -0.219879,-1.42921 -0.375772,-2.86812 -0.613497,-4.29447 -0.171426,-1.02856 -0.50974,-2.02992 -0.613497,-3.06749 -0.101742,-1.01742 0.112916,-2.05124 0,-3.06748 -0.09311,-0.83802 -0.408998,-1.636 -0.613497,-2.45399 -0.204499,-0.818 -0.408998,-1.63599 -0.613497,-2.45399 -0.204499,-0.818 -0.346863,-1.65408 -0.613497,-2.45399 -0.144602,-0.4338 -0.468894,-0.79318 -0.613497,-1.22699 -0.0022,-0.007 -1.222608,-4.89263 -1.226993,-4.90798 -0.938843,-3.28595 -0.770682,-1.14252 -1.840491,-6.13497 -0.302985,-1.41392 -0.375772,-2.86812 -0.613497,-4.29447 -0.003,-0.0177 -1.226008,-6.12708 -1.226994,-6.13497 -0.0761,-0.60876 0,-1.227 0,-1.84049 0,-0.2045 0,-0.409 0,-0.6135 0,-1.43149 0,-2.86299 0,-4.29448 0,-1.02249 0,-2.04499 0,-3.06748 0,-1.0225 -0.06802,-2.04726 0,-3.06749 0.374517,-5.61776 0.829029,-8.42307 2.453988,-14.11043 0.480004,-1.68001 1.258974,-3.26034 1.840491,-4.90797 0.645686,-1.82945 1.094318,-3.73066 1.84049,-5.52148 0.283589,-0.68061 0.9681,-1.1501 1.226994,-1.84049 0.366132,-0.97635 0.339133,-2.06148 0.613497,-3.06748 3.338283,-10.01485 -0.637884,2.55153 1.840491,-7.36197 0.0052,-0.0206 2.446255,-7.3336 2.453988,-7.36196 0.274364,-1.006 0.283752,-2.07825 0.613497,-3.06748 0.289205,-0.86762 0.855561,-1.61827 1.226993,-2.45399 0.01006,-0.0226 2.448948,-6.12489 2.453988,-6.13497 0.533268,-1.06654 1.269496,-2.02066 1.840491,-3.06748 0.656899,-1.20432 1.053803,-2.55715 1.840491,-3.68099 1.30172,-1.8596 2.558195,-2.52346 4.294481,-3.68098 2.01656,-1.34437 1.45849,-1.20549 3.68098,-1.84049 0.81073,-0.23164 1.61929,-0.49425 2.45399,-0.6135 0.60733,-0.0868 1.25847,0.19401 1.84049,0 0.69949,-0.23316 1.20823,-0.84764 1.84049,-1.22699 0.39211,-0.23526 0.802423,-0.44367 1.226993,-0.6135 0.73843,-0.29537 2.34811,-0.65149 3.06749,-1.22699 0.67749,-0.542 1.22699,-1.22699 1.84049,-1.84049 1.02249,-1.0225 2.04499,-2.04499 3.06748,-3.06749 1.63599,-1.63599 3.15133,-3.40227 4.90798,-4.90797 2.54657,-2.18278 5.48242,-3.89124 7.97546,-6.13497 1.61581,-1.45423 2.86298,-3.27198 4.29448,-4.90798 1.84049,-1.43149 3.76672,-2.75907 5.52147,-4.29447 3.82855,-3.34999 4.43293,-5.09822 8.58895,-7.97546 1.89892,-1.31464 4.18736,-1.85023 6.13497,-3.06749 0.86708,-0.54192 1.56621,-1.33319 2.45398,-1.84049 0.56148,-0.32084 1.26208,-0.32429 1.84049,-0.6135 0.65949,-0.32974 1.20031,-0.86117 1.84049,-1.22699 0.79405,-0.45374 1.636,-0.818 2.45399,-1.22699 0.818,-0.409 1.63599,-0.818 2.45399,-1.227 0.81799,-0.409 1.65453,-0.78285 2.45399,-1.22699 1.04236,-0.57909 2.04499,-1.227 3.06748,-1.84049 1.0225,-0.6135 2.06148,-1.20031 3.06749,-1.84049 3.47902,-2.21393 3.38204,-2.42425 6.74846,-4.29448 0.79946,-0.44415 1.63599,-0.818 2.45399,-1.227 0.818,-0.40899 1.58637,-0.93779 2.45399,-1.22699 0.38801,-0.12934 0.82594,0.0802 1.22699,0 0.63413,-0.12683 1.20261,-0.50718 1.84049,-0.6135 0.60515,-0.10086 1.23891,0.12032 1.84049,0 0.4484,-0.0897 0.818,-0.409 1.227,-0.61349 0.81799,-0.409 1.67845,-0.74229 2.45398,-1.227 0.86708,-0.54192 1.64354,-1.21706 2.45399,-1.84049 7.15703,-5.5054 3.47351,-2.644 9.20246,-7.36196 11.30872,-9.31307 2.40872,-1.80126 11.65644,-9.81595 1.42476,-1.2348 2.96131,-2.34781 4.29448,-3.68098 0.52137,-0.52138 0.75496,-1.27406 1.22699,-1.8405 0.55543,-0.66652 1.22699,-1.22699 1.84049,-1.84049 0.409,-0.40899 0.70965,-0.96832 1.227,-1.22699 0.36581,-0.18291 0.87628,0.21043 1.22699,0 0.74397,-0.44638 1.17397,-1.28506 1.84049,-1.84049 2.09009,-1.74174 2.0843,-0.85731 4.29448,-3.06749 0.72301,-0.72301 1.16118,-1.68976 1.84049,-2.45398 4.13632,-4.65337 2.03473,-1.3407 5.52147,-6.13497 0.86736,-1.19262 1.63599,-2.45399 2.45399,-3.68098 0.818,-1.227 1.75485,-2.38259 2.45399,-3.68099 0.73837,-1.37126 1.10212,-2.92321 1.84049,-4.29447 1.81,-3.36143 2.74956,-3.78065 4.90797,-6.74847 2.68623,-3.69356 1.97152,-3.48574 4.90798,-6.74847 0.96734,-1.07482 2.15181,-1.94832 3.06748,-3.06748 0.93382,-1.14133 1.58664,-2.48837 2.45399,-3.68098 0.77017,-1.05899 1.66833,-2.01994 2.45399,-3.06749 2.18979,-2.91972 3.18837,-4.73722 5.52147,-7.36196 0.76855,-0.86462 1.63599,-1.63599 2.45399,-2.45399 0.409,-0.409 0.78265,-0.8567 1.22699,-1.22699 1.81686,-1.51405 4.22353,-3.02019 6.13497,-4.29448 1.84049,-1.22699 3.71435,-2.40536 5.52147,-3.68098 19.12592,-13.50065 -11.68492,7.64995 11.04295,-7.97546 7.26441,-4.99429 0.0903,-0.13924 7.36196,-4.29448 0.2511,-0.14349 0.33914,-0.52204 0.6135,-0.6135 0.38801,-0.12933 0.818,0 1.22699,0 0.2045,0 0.4195,0.0647 0.6135,0 0.43381,-0.1446 0.818,-0.409 1.22699,-0.61349 0.6135,0 1.23891,0.12031 1.84049,0 0.4484,-0.0897 0.79319,-0.4689 1.227,-0.6135 0.13209,-0.044 1.13566,0.0457 1.22699,0 0.25868,-0.12934 0.35483,-0.48416 0.6135,-0.6135 0.36582,-0.18291 0.86117,0.18291 1.22699,0 0.25868,-0.12933 0.35483,-0.48416 0.6135,-0.6135 0.18291,-0.0915 0.409,0 0.6135,0 0.2045,0 0.52204,0.18291 0.61349,0 0.18291,-0.36581 -0.18291,-0.86117 0,-1.22699 0.0915,-0.18291 0.43059,0.0915 0.6135,0 0.25867,-0.12934 0.33913,-0.52204 0.6135,-0.6135 0.92024,-0.30674 1.07362,0.15338 1.84049,0 0.8268,-0.16536 1.62229,-0.47488 2.45399,-0.61349 0.40343,-0.0672 0.81799,0 1.22699,0 0.6135,0 1.22699,0 1.84049,0 0.6135,0 1.23534,0.10086 1.84049,0 4.84501,-0.8075 -1.10438,-0.6135 3.68098,-0.6135 1.636,0 3.27199,0 4.90798,0 0.6135,0 1.22699,0 1.84049,0 0.6135,0 1.23891,0.12032 1.84049,0 0.44839,-0.0897 0.78337,-0.50259 1.22699,-0.6135 0.39679,-0.0992 0.818,0 1.227,0 0.2045,0 0.409,0 0.6135,0 0.20449,0 0.46889,0.14461 0.61349,0 0.14461,-0.1446 -0.1446,-0.46889 0,-0.61349 0.14461,-0.14461 0.4689,0.1446 0.6135,0 0.1446,-0.14461 -0.1446,-0.4689 0,-0.6135 0.32334,-0.32334 0.84652,-0.35985 1.22699,-0.6135 0.24064,-0.16042 0.33914,-0.52204 0.6135,-0.61349 0.38801,-0.12934 0.83021,0.0992 1.22699,0 0.99045,-0.24762 1.21686,-0.60337 1.84049,-1.227 0.2045,-0.2045 0.37287,-0.45307 0.6135,-0.6135 0.38048,-0.25365 0.84652,-0.35984 1.227,-0.61349 0.24063,-0.16042 0.40899,-0.409 0.61349,-0.6135 0.6135,-0.6135 1.17397,-1.28506 1.84049,-1.84049 0.56644,-0.47203 1.26473,-0.76639 1.84049,-1.22699 0.45167,-0.36133 0.77534,-0.86567 1.227,-1.227 3.86959,-3.09567 0.10489,0.5086 3.06748,-2.45399 0.409,-0.40899 1.31495,-1.79867 1.227,-1.22699 -1.49564,9.72166 -2.1487,7.58003 -5.52148,15.33742 -6.97823,18.14341 0.98708,-1.5207 -6.74846,14.72393 -0.94694,1.98857 -1.57118,4.11711 -2.45399,6.13497 -0.004,0.009 -3.67522,7.34929 -3.68098,7.36196 -0.45571,1.00255 -0.6721,2.11624 -1.227,3.06749 -9.20085,15.7729 3.36146,-8.06377 -6.13496,9.20245 -1.32222,2.40402 -2.36719,4.95333 -3.68099,7.36196 -1.14199,2.09365 -2.48608,4.07106 -3.68098,6.13497 -1.0549,1.82211 -2.02289,3.69344 -3.06748,5.52148 -0.59161,1.03531 -1.3408,1.98481 -1.84049,3.06748 -0.7322,1.58642 -1.16848,3.29514 -1.84049,4.90798 -0.35175,0.84419 -0.91446,1.5945 -1.227,2.45398 -0.50878,1.39914 -0.69255,2.90494 -1.22699,4.29448 -2.55624,6.64622 -1.0225,1.0225 -3.06749,6.13497 -0.48034,1.20086 -0.78499,2.46549 -1.22699,3.68098 -2.82028,7.75576 0.0202,-0.99104 -1.84049,5.52148 -0.17766,0.6218 -0.52204,1.2003 -0.6135,1.84049 -0.11568,0.80977 0,1.63599 0,2.45398 0,0.818 0,1.636 0,2.45399 0,3.27199 0,6.54397 0,9.81595 0,1.0225 0,2.04499 0,3.06749 0,0.2045 0,0.409 0,0.61349 0,0.2045 0,0.818 0,0.6135 0,-3.31225 -0.2454,-0.69844 3.68098,-6.13497 1.46152,-2.02364 2.83296,-4.11133 4.29448,-6.13497 2.89778,-4.01231 5.41875,-7.14114 8.58896,-11.04294 1.00717,-1.2396 1.9931,-2.49916 3.06748,-3.68098 0.97271,-1.06998 2.1068,-1.98672 3.06749,-3.06749 0.67931,-0.76422 1.11748,-1.73097 1.84049,-2.45399 0.72301,-0.72301 1.81524,-1.04205 2.45399,-1.84049 0.2555,-0.31937 -0.2555,-0.90762 0,-1.22699 0.63874,-0.79844 1.63599,-1.22699 2.45398,-1.84049 0.818,-0.6135 1.73098,-1.11748 2.45399,-1.84049 0.92591,-0.92591 1.57803,-2.09419 2.45399,-3.06749 0.96734,-1.07482 2.09478,-1.99751 3.06748,-3.06748 1.07439,-1.18183 1.9931,-2.49916 3.06749,-3.68098 2.31261,-2.54388 3.68617,-3.25093 5.52147,-6.13497 6.06913,-9.53721 -2.25917,1.35492 4.29448,-6.13497 0.67332,-0.76951 1.16717,-1.68448 1.84049,-2.45399 0.76177,-0.8706 1.63599,-1.63599 2.45399,-2.45399 0.81799,-0.81799 1.58937,-1.68544 2.45399,-2.45399 2.00267,-1.78015 4.88164,-3.65464 6.74846,-5.52147 1.33317,-1.33317 2.46313,-2.8552 3.68098,-4.29448 3.2894,-3.88746 3.13514,-3.64236 6.13497,-7.97546 0.8394,-1.21245 1.54864,-2.51695 2.45399,-3.68098 0.0184,-0.0236 3.64963,-3.6444 3.68098,-3.68098 0.66543,-0.77633 1.18591,-1.66848 1.84049,-2.45399 2.06402,-2.47681 0.50378,0.18287 2.45399,-3.06748 0.23527,-0.39211 0.33913,-0.86118 0.6135,-1.227 0.34704,-0.46272 0.96832,-0.70964 1.22699,-1.22699 0.18291,-0.36582 -0.18291,-0.86117 0,-1.22699 0.0915,-0.18291 0.70495,-0.18291 0.6135,0 -0.25867,0.51734 -0.85671,0.78264 -1.22699,1.22699 -0.65459,0.7855 -1.29857,1.58691 -1.8405,2.45399 -0.4847,0.77553 -0.81799,1.63599 -1.22699,2.45399 -0.6135,1.22699 -1.33101,2.40727 -1.84049,3.68098 -0.31315,0.78286 -0.39164,1.64052 -0.6135,2.45399 -0.39172,1.43631 -1.04233,2.8172 -1.22699,4.29447 -0.13355,1.06841 0.10387,8.25787 0,9.81595 -0.10967,1.64508 -0.51065,3.26247 -0.6135,4.90798 -0.10205,1.63281 0,3.27198 0,4.90798 0,4.12552 0.20349,8.18503 -0.61349,12.26993 -0.41872,2.09358 -1.32267,4.06369 -1.8405,6.13497 -0.5058,2.02322 -0.72118,4.11175 -1.22699,6.13497 -0.51782,2.07129 -1.32267,4.06369 -1.84049,6.13497 -0.50581,2.02322 -0.818,4.08998 -1.22699,6.13497 -0.409,2.04499 -0.818,4.08998 -1.227,6.13497 -0.409,2.04499 -0.66882,4.12556 -1.22699,6.13497 -0.46764,1.6835 -1.31434,3.24184 -1.84049,4.90798 -0.70213,2.22341 -1.05072,4.55464 -1.84049,6.74846 -1.05506,2.93071 -2.59916,5.66803 -3.68098,8.58896 -0.96606,2.60833 -1.54725,5.34592 -2.45399,7.97546 -11.39387,33.04222 1.58274,-4.57036 -6.13497,14.72393 -0.55292,1.38229 -0.7562,2.8821 -1.227,4.29447 -0.34824,1.04475 -0.87874,2.02274 -1.22699,3.06749 -0.47079,1.41237 -0.71821,2.89534 -1.22699,4.29448 -0.62648,1.72282 -2.75139,4.9988 -3.68099,6.13497 -0.91567,1.11916 -2.10679,1.98671 -3.06748,3.06748 -1.17432,1.32111 -2.92566,4.01084 -3.68098,5.52147 -0.28921,0.57841 -0.37333,1.24006 -0.6135,1.84049 -0.16983,0.42457 -0.50259,0.78338 -0.6135,1.227 0,2.79281 0.28921,0.0351 -0.61349,1.84049 -0.0915,0.18291 0.0915,0.43059 0,0.6135 -0.12934,0.25867 -0.35483,0.48416 -0.6135,0.61349 -0.18291,0.0915 -0.6135,0.2045 -0.6135,0 0,-0.2045 0.43059,0.0915 0.6135,0 0.65949,-0.32974 1.26983,-0.76008 1.84049,-1.22699 1.68247,-1.37657 3.24517,-2.89422 4.90798,-4.29448 2.22319,-1.87216 4.5417,-3.62996 6.74846,-5.52147 10.66958,-9.14536 16.08865,-13.89623 25.76687,-23.31289 3.93834,-3.83189 8.0209,-7.53615 11.65645,-11.65644 3.32056,-3.7633 10.07365,-14.19023 12.88343,-18.40491 1.227,-1.84049 2.39529,-3.72149 3.68098,-5.52147 0.7611,-1.06553 1.75099,-1.96276 2.45399,-3.06748 0.7365,-1.15735 1.07954,-2.53956 1.84049,-3.68098 2.45578,-3.68366 1.44689,0.17371 3.68098,-4.29448 0.57841,-1.15682 0.64859,-2.52416 1.227,-3.68098 0.0631,-0.12629 4.86046,-7.25903 4.90797,-7.36197 0.62389,-1.35174 0.69256,-2.90493 1.227,-4.29448 0.49245,-1.28038 1.31286,-2.41468 1.84049,-3.68098 0.49745,-1.19387 0.70171,-2.49909 1.22699,-3.68098 0.29946,-0.67378 0.86118,-1.20031 1.227,-1.84049 0.90748,-1.5881 1.5465,-3.31988 2.45398,-4.90797 0.36582,-0.64019 0.89725,-1.18101 1.227,-1.8405 0.4925,-0.98499 0.81799,-2.04499 1.22699,-3.06748 0.81316,-2.03289 1.92891,-4.64814 2.45399,-6.74847 1.81682,-7.26727 2.04833,-9.78903 3.06748,-17.17791 0.42285,-3.06561 0.67341,-6.15774 1.227,-9.20245 0.26632,-1.46477 0.84339,-2.85598 1.22699,-4.29448 0.43451,-1.62941 0.818,-3.27199 1.22699,-4.90798 0.2045,-0.81799 0.23642,-1.69983 0.6135,-2.45399 0.25867,-0.51734 0.818,-0.81799 1.227,-1.22699 1.3964,-1.39641 -0.12706,-0.16215 1.22699,-0.6135 0.43381,-0.1446 0.79319,-0.46889 1.22699,-0.61349 0.19401,-0.0647 0.4689,-0.14461 0.6135,0 0.1446,0.1446 0,0.40899 0,0.61349 0,1.84049 0,3.68098 0,5.52148 0,3.68098 0,7.36196 0,11.04294 0,8.17996 0,16.35992 0,24.53988 0,2.04499 0,4.08998 0,6.13497 0,1.84049 0.10209,3.68381 0,5.52147 -0.10272,1.84896 -0.409,3.68098 -0.6135,5.52147 -0.2045,1.84049 -0.29167,3.69783 -0.61349,5.52147 -0.29307,1.66069 -0.91622,3.25052 -1.227,4.90798 -0.30384,1.62048 -0.30965,3.28749 -0.61349,4.90797 -0.31078,1.65746 -0.818,3.27199 -1.227,4.90798 -0.409,1.63599 -0.84075,3.26646 -1.22699,4.90798 -0.43183,1.83526 -0.76972,3.69237 -1.227,5.52147 -0.36108,1.44432 -0.93502,2.83461 -1.22699,4.29448 -0.32334,1.6167 -0.3956,3.27371 -0.6135,4.90797 -0.19111,1.43334 -0.34292,2.87399 -0.61349,4.29448 -1.51655,7.96185 -2.02049,9.9952 -4.90798,17.79141 -0.92333,2.49299 -2.06445,4.89996 -3.06748,7.36196 -1.24651,3.05961 -2.4103,6.15281 -3.68099,9.20246 -2.54712,6.1131 -2.9125,5.36008 -4.29447,12.26994 -0.16043,0.80211 0,1.63599 0,2.45399 0,1.22699 0,2.45398 0,3.68098 0,2.65848 0,5.31697 0,7.97546 0,1.22699 0.12209,2.46007 0,3.68098 -0.0839,0.83898 -0.44814,1.62719 -0.6135,2.45399 -0.0802,0.40105 0.0732,0.82459 0,1.22699 -0.37306,2.05185 -0.62773,4.13743 -1.22699,6.13497 -0.63289,2.10963 -1.6557,4.08221 -2.45399,6.13497 -4.31503,11.09579 1.17633,-2.33241 -4.90798,12.26994 -1.02249,2.45398 -1.95981,4.94522 -3.06748,7.36196 -1.14315,2.49415 -2.45399,4.90798 -3.68098,7.36196 -0.818,1.636 -1.54651,3.31988 -2.45399,4.90798 -0.73164,1.28037 -1.63599,2.45399 -2.45399,3.68098 -0.409,0.6135 -0.89725,1.181 -1.22699,1.84049 -0.28921,0.57841 -0.3243,1.26208 -0.6135,1.84049 -0.32975,0.65949 -0.86118,1.20031 -1.22699,1.84049 -2.32539,4.06943 -0.36561,0.85309 -1.8405,4.29448 -0.36025,0.8406 -0.86673,1.61339 -1.22699,2.45399 -1.13855,2.65662 0.009,1.3349 -1.84049,4.29448 -0.30655,1.81881 -2.18152,2.35204 -3.06748,3.68098 -0.5073,0.76095 -0.74229,1.67845 -1.227,2.45399 -0.0234,0.0374 -3.66225,4.87676 -3.68098,4.90797 -2.75826,4.59711 -1.19017,2.81284 -3.06748,7.97546 -2.18115,5.99814 -0.42798,-2.04989 -3.06749,6.74847 -0.17629,0.58762 0,1.22699 0,1.84049 0,4.92308 0,2.43889 0,7.36196 0,2.24949 0,4.49898 0,6.74847 0,1.02249 -0.0926,2.04919 0,3.06748 0.11262,1.23881 0.51809,2.44073 0.6135,3.68099 0.10979,1.42727 0,2.86298 0,4.29447 0,1.0225 0,2.04499 0,3.06749 0,3.47648 0,6.95296 0,10.42945 0,2.04499 0.11343,4.09312 0,6.13497 -0.20046,3.6083 -0.85002,6.3493 -1.84049,9.81595 -0.42571,1.48997 -1.41968,4.68693 -2.45399,6.13497 -0.50429,0.706 -1.3362,1.13448 -1.84049,1.84049 -0.53157,0.74419 -0.74229,1.67845 -1.227,2.45398 -1.11816,1.78907 -2.71996,3.53028 -4.29447,4.90798 -0.76951,0.67332 -1.67766,1.17506 -2.45399,1.84049 -0.65874,0.56464 -1.17397,1.28506 -1.84049,1.84049 -0.56644,0.47203 -1.227,0.818 -1.84049,1.227 -0.6135,0.40899 -1.20824,0.84764 -1.84049,1.22699 -0.39211,0.23526 -0.86118,0.33913 -1.227,0.6135 -0.46273,0.34704 -0.70965,0.96832 -1.22699,1.22699 -0.36582,0.18291 -0.83021,-0.0992 -1.227,0 -0.44362,0.11091 -0.7786,0.52382 -1.22699,0.6135 -0.60158,0.12031 -1.22699,0 -1.84049,0 -1.0225,0 -2.04499,0 -3.06749,0 -0.20449,0 -0.40899,0 -0.61349,0 -0.409,0 -0.86794,-0.19585 -1.227,0 -1.9419,1.05922 -3.83606,2.24838 -5.52147,3.68098 -10.97401,9.32791 -2.80706,3.66533 -11.65644,12.88343 -4.77026,4.96903 -15.16529,13.88932 -20.2454,18.40492 -3.89678,3.4639 -7.56428,7.1989 -11.65644,10.4295 -3.69517,2.9172 -7.6791,5.45653 -11.65644,7.97553 -3.85468,2.4413 -10.13417,5.2692 -14.11043,7.3619 -1.45899,0.7679 -2.84283,1.6724 -4.29448,2.454 -1.20785,0.6504 -2.45399,1.227 -3.68098,1.8405 -0.818,0.409 -1.65453,0.7829 -2.45399,1.227 -1.04237,0.5791 -2.00095,1.3072 -3.06748,1.8405 -0.57841,0.2892 -1.23499,0.3864 -1.84049,0.6135 -2.70883,1.0158 -3.24393,1.5777 -6.13497,1.8405 -1.22196,0.1111 -2.45399,0 -3.68099,0 -1.22699,0 -2.45398,0 -3.68098,0 -1.43149,0 -2.86662,0.102 -4.29448,0 -1.44235,-0.103 -2.87653,-0.3299 -4.29447,-0.6135 -3.00462,-0.6009 -5.73034,-1.4145 -8.58896,-2.454 -1.03496,-0.3764 -2.08249,-0.7345 -3.06749,-1.227 -0.65949,-0.3297 -1.2003,-0.8612 -1.84049,-1.227 -0.79405,-0.4537 -1.63599,-0.818 -2.45398,-1.227 -0.409,-0.2045 -0.79319,-0.4689 -1.227,-0.6135 -0.194,-0.065 -0.41297,0.04 -0.6135,0 -0.82679,-0.1653 -1.61227,-0.564 -2.45398,-0.6135 -2.6539,-0.1561 -5.31698,0 -7.97546,0 -6.74847,0 -13.49694,0 -20.2454,0 -3.06749,0 -6.13497,0 -9.20246,0 -1.22699,0 -2.45398,0 -3.68098,0 -0.409,0 -0.86117,0.1829 -1.22699,0 -0.51735,-0.2587 -0.818,-0.818 -1.227,-1.227 -0.20449,-0.2045 -0.40899,-0.409 -0.61349,-0.6135 -0.409,-0.409 -0.70965,-0.9683 -1.227,-1.227 -0.36582,-0.1829 -0.84725,0.1519 -1.22699,0 -0.6846,-0.2738 -1.1559,-0.9531 -1.84049,-1.227 -0.37975,-0.1519 -0.88669,0.2269 -1.22699,0 -0.38048,-0.2536 -0.35985,-0.8465 -0.6135,-1.227 -0.16042,-0.2406 -0.409,-0.409 -0.6135,-0.6135 -0.409,-0.4089 -0.87995,-0.7642 -1.22699,-1.2269 -0.27437,-0.3659 -0.35985,-0.8466 -0.6135,-1.227 -0.16042,-0.2407 -0.409,-0.409 -0.6135,-0.6135 -0.40899,-0.409 -0.77533,-0.8657 -1.22699,-1.227 -0.41084,-0.3287 -1.97426,-1.1209 -2.45399,-1.8405 -1.35163,-0.30903 -0.32429,-1.26213 -0.61349,-1.84053 -0.12934,-0.2587 -0.35483,-0.4842 -0.6135,-0.6135 -0.18291,-0.091 -0.409,0 -0.6135,0 -0.6135,0 -1.22699,0 -1.84049,0"
       id="path4353"
       inkscape:connector-curvature="0"
       sodipodi:nodetypes="csssssscscccccsssssssscsssscscsssssssccsssssccsccsssssssssssccsccssssssssscccscsssssccssssssscsssscssssssssccsccssssssscssssssssssssssssssssssccsscsccscccsssssssssssssccsscscssssssssscsccsssssssssssssssssssssssssscsssssssssssssccsscsccccssssssssssssssssssscssssssccccscssssssssssccsssssssssssssssssssssssssssssssssssssssssccsssssssccssscsccssssscsssssssssssscscsscssssssssssssssssssssscssccsssssscsssscssccsscccsc" />
    <path
       inkscape:connector-curvature="0"
       id="path4057"
       d="m 237.84039,748.81593 c -24.49646,-0.13966 -48.92742,9.48534 -65.65599,26.15122 -39.35848,-5.22662 -79.740241,26.31351 -78.403836,63.73086 0.07105,15.08064 6.185588,30.09683 17.014766,41.34581 -0.37257,18.47911 10.32048,34.872 14.62786,52.50258 13.67769,36.2339 58.56567,59.63397 98.874,49.51877 23.95621,-5.4113 45.04417,-21.05847 55.77656,-41.71516 23.05378,6.29467 44.12057,-12.46107 51.23929,-31.39592 10.89912,-25.42411 9.12189,-55.16609 -4.39404,-79.44346 1.13151,-43.85065 -42.344,-82.02284 -89.07861,-80.6947 z"
       style="fill:#572a0d;fill-opacity:1;stroke:#000000;stroke-width:5;stroke-linecap:round;stroke-linejoin:round;stroke-miterlimit:4;stroke-opacity:1;stroke-dasharray:none;filter:url(#filter4233)" />
    <path
       style="fill:url(#radialGradient4525);fill-opacity:1;stroke:none;filter:url(#filter4529)"
       d="m 63.8125,778.73718 c -6.994431,1.98938 -8.343723,9.785 -11.46875,13.2187 -8.493201,11.70856 -19.834874,23.88093 -20.998585,39.90025 -5.646415,17.3288 -4.623374,37.0401 3.919241,53.26683 6.993238,15.30713 16.108897,29.58192 26.364254,42.86259 10.383,12.89651 7.239863,32.60473 19.741688,44.47975 10.831784,12.42126 26.108632,19.78291 36.684542,30.7101 17.96323,6.3368 36.82055,11.7351 56.03886,10.7179 16.3817,-0.3715 32.20522,6.2608 48.6875,4.875 12.97237,10.9742 29.17815,-5.5697 43.76294,2.6572 15.06987,5.6549 31.53899,6.5948 47.10985,2.6866 13.331,-6.6952 21.29909,-21.3709 36.76007,-24.6581 13.59141,-3.1853 26.66368,-9.32654 34.60242,-21.39195 11.33335,-15.84596 18.93435,-34.71418 22.10847,-53.91872 0.21416,-10.45099 0.64999,-21.25629 -6.16121,-29.9723 -5.4568,-12.54739 -19.41516,-13.30874 -31.15781,-12.48265 -11.79965,-2.1597 -6.92445,16.47315 -16.76496,20.72643 -8.67188,6.12552 -15.61828,12.63229 -25.22852,18.25977 -11.46522,10.48914 -13.16015,27.85376 -22.54463,39.69013 -2.51871,3.93759 -15.95497,6.2714 -15.70537,0.43238 -0.5984,-17.08965 1.95378,-34.73903 -3.46875,-51.24751 -10.54165,-5.16322 -21.9614,-11.83375 -32,-18.78115 -9.63829,-7.66418 -2.05045,-29.00951 -20.10149,-32.16688 -10.12072,-6.07612 -20.56859,-1.90759 -31.01217,-2.64562 -13.52217,0.97788 -27.41787,-3.03273 -38.63634,-9.71875 -3.36716,-16.65493 -21.8157,-26.25074 -37.97373,-23.65625 -11.56387,0.054 -23.24641,-0.64651 -34.37002,2.09375 -8.826022,-0.68069 -3.281821,-17.54679 -11.8125,-22.9687 -5.428687,-7.38192 -3.951899,-23.56013 -16.375,-22.9688 z m 249.4375,166.375 -0.0185,-0.14401 0.0185,0.14401 z m -242.96875,4.1875 -1.09375,-3.34375 1.09375,3.34375 z M 321.5,928.39343 l -0.46875,0.96875 0.46875,-0.96875 z"
       id="path4513"
       inkscape:connector-curvature="0" />
    <g
       id="g4447"
       style="filter:url(#filter4497)"
       transform="translate(13,-6)">
      <path
         sodipodi:nodetypes="czzzzzc"
         transform="translate(0,540.36218)"
         inkscape:connector-curvature="0"
         id="path4379"
         d="m 293.49594,99.804876 c 0,0 -106.9657,67.505214 -182.11383,134.959354 -75.148124,67.45414 -40.558219,90.27193 -28.45528,123.57723 12.102939,33.30529 1.626021,24.79675 43.90244,73.98375 42.27643,49.18699 157.15313,48.90029 154.47154,3.25203 -2.68159,-45.64826 55.20549,-8.24727 64.22764,-113.00814 9.02215,-104.76087 77.23578,-189.43089 77.23578,-189.43089"
         style="fill:none;stroke:#ff0000;stroke-width:10;stroke-linecap:round;stroke-linejoin:miter;stroke-miterlimit:4;stroke-opacity:1;stroke-dasharray:none" />
      <path
         inkscape:connector-curvature="0"
         id="path4381"
         d="m 126,905.36218 c -4.29537,-52.54921 21.14366,-101.55308 48.73411,-144.41288 15.08064,-21.76195 37.55527,-36.49365 56.402,-54.61282 4.0431,-3.32173 8.30431,-6.39715 12.86389,-8.9743"
         style="fill:none;stroke:#ff0000;stroke-width:10;stroke-linecap:round;stroke-linejoin:miter;stroke-miterlimit:4;stroke-opacity:1;stroke-dasharray:none" />
      <path
         inkscape:connector-curvature="0"
         id="path4400"
         d="m 135,944.36218 c -2.04545,-17.61246 5.36469,-38.13298 22.54309,-45.53699 14.27975,-12.22478 11.0613,-32.69805 10.14531,-49.32743 0.16627,-14.36436 4.15418,-29.25992 13.85775,-40.18586 15.7961,-0.82182 30.24557,-14.94677 29.93614,-31.04032 11.31267,-22.34415 19.15483,-49.5996 41.97834,-63.0591 15.23359,-5.17256 33.64101,3.60852 47.00585,-7.70448 10.16862,-12.00993 18.57507,-25.91369 31.62615,-35.14323 2.17293,-2.88663 3.76871,-6.34295 3.90737,-10.00259"
         style="fill:none;stroke:#ff0000;stroke-width:10;stroke-linecap:round;stroke-linejoin:miter;stroke-miterlimit:4;stroke-opacity:1;stroke-dasharray:none" />
      <path
         inkscape:connector-curvature="0"
         id="path4418"
         d="m 161,968.36218 c -1.75486,-17.78751 17.53149,-26.49166 32.48827,-26.94163 17.56067,-3.20808 22.78475,-26.35774 10.42907,-38.11326 -15.10052,-11.24072 -8.46082,-32.70995 4.35011,-42.80721 17.20473,-16.02372 17.34047,-42.07091 32.45178,-59.64168 13.48773,-19.08664 26.80199,-38.44903 41.83771,-56.32228 13.485,-11.0194 27.80698,-20.5982 39.44306,-33.17394"
         style="fill:none;stroke:#ff0000;stroke-width:10;stroke-linecap:round;stroke-linejoin:miter;stroke-miterlimit:4;stroke-opacity:1;stroke-dasharray:none" />
      <path
         inkscape:connector-curvature="0"
         id="path4420"
         d="m 206,978.36218 c 16.63319,-7.21252 35.97753,-10.7692 49.12834,-24.00788 7.47356,-13.00947 19.39449,-33.50882 4.07884,-45.47789 -12.20675,-9.97558 -11.76289,-30.36663 -1.42504,-41.60399 12.75287,-10.89586 20.68143,-25.84249 24.94497,-41.9198 7.23548,-19.36124 12.7591,-39.57757 22.06499,-57.97479 2.33637,-9.15276 3.88258,-18.82383 5.2079,-28.01565"
         style="fill:none;stroke:#ff0000;stroke-width:10;stroke-linecap:round;stroke-linejoin:miter;stroke-miterlimit:4;stroke-opacity:1;stroke-dasharray:none" />
      <path
         inkscape:connector-curvature="0"
         id="path4422"
         d="m 230,913.36218 c 0.74701,-20.58288 17.06162,-35.90656 28.21479,-51.71327 15.4058,-13.89821 40.6388,-5.75357 54.25058,-22.63958 13.3599,-12.0076 19.50257,-28.64301 24.49027,-45.37641 7.99077,-12.50849 14.12544,-25.93315 18.38939,-40.249 l 0.80489,-2.02034 0.85008,-2.0014"
         style="fill:none;stroke:#ff0000;stroke-width:10;stroke-linecap:round;stroke-linejoin:miter;stroke-miterlimit:4;stroke-opacity:1;stroke-dasharray:none" />
      <path
         inkscape:connector-curvature="0"
         id="path4424"
         d="m 109,844.36218 c -2.40731,-19.46976 9.55527,-39.44245 29.27202,-43.475 15.93902,-8.13547 33.65512,-11.72903 49.69896,-19.33704 16.83958,-8.36947 34.87566,-13.98241 52.18583,-21.1027 22.85057,-13.54801 28.23078,-42.48606 28.85407,-66.96426 -0.0413,-7.03861 -0.70907,-14.20816 0.98912,-21.121"
         style="fill:none;stroke:#ff0000;stroke-width:10;stroke-linecap:round;stroke-linejoin:miter;stroke-miterlimit:4;stroke-opacity:1;stroke-dasharray:none" />
      <path
         inkscape:connector-curvature="0"
         id="path4426"
         d="m 145,893.36218 c 2.72352,-20.85787 18.54528,-36.50792 31.71613,-51.62861 17.94841,-18.04772 36.4777,-40.12652 63.74521,-42.27386 17.70146,0.3314 36.78127,-6.2382 42.72109,-24.6642 2.95692,-6.69516 8.56489,-16.10489 11.81757,-20.43333"
         style="fill:none;stroke:#ff0000;stroke-width:10;stroke-linecap:round;stroke-linejoin:miter;stroke-miterlimit:4;stroke-opacity:1;stroke-dasharray:none" />
    </g>
    <g
       id="g4457"
       transform="translate(10.347826,-1.3913043)"
       style="stroke:#ffff93;stroke-width:3;stroke-miterlimit:4;stroke-opacity:1;stroke-dasharray:none;filter:url(#filter4509)">
      <path
         style="fill:none;stroke:#ffff93;stroke-width:3;stroke-linecap:round;stroke-linejoin:miter;stroke-miterlimit:4;stroke-opacity:1;stroke-dasharray:none"
         d="m 293.49594,99.804876 c 0,0 -106.9657,67.505214 -182.11383,134.959354 -75.148124,67.45414 -40.558219,90.27193 -28.45528,123.57723 12.102939,33.30529 1.626021,24.79675 43.90244,73.98375 42.27643,49.18699 157.15313,48.90029 154.47154,3.25203 -2.68159,-45.64826 55.20549,-8.24727 64.22764,-113.00814 9.02215,-104.76087 77.23578,-189.43089 77.23578,-189.43089"
         id="path4459"
         inkscape:connector-curvature="0"
         transform="translate(0,540.36218)"
         sodipodi:nodetypes="czzzzzc" />
      <path
         style="fill:none;stroke:#ffff93;stroke-width:3;stroke-linecap:round;stroke-linejoin:miter;stroke-miterlimit:4;stroke-opacity:1;stroke-dasharray:none"
         d="m 126,905.36218 c -4.29537,-52.54921 21.14366,-101.55308 48.73411,-144.41288 15.08064,-21.76195 37.55527,-36.49365 56.402,-54.61282 4.0431,-3.32173 8.30431,-6.39715 12.86389,-8.9743"
         id="path4461"
         inkscape:connector-curvature="0" />
      <path
         style="fill:none;stroke:#ffff93;stroke-width:3;stroke-linecap:round;stroke-linejoin:miter;stroke-miterlimit:4;stroke-opacity:1;stroke-dasharray:none"
         d="m 135,944.36218 c -2.04545,-17.61246 5.36469,-38.13298 22.54309,-45.53699 14.27975,-12.22478 11.0613,-32.69805 10.14531,-49.32743 0.16627,-14.36436 4.15418,-29.25992 13.85775,-40.18586 15.7961,-0.82182 30.24557,-14.94677 29.93614,-31.04032 11.31267,-22.34415 19.15483,-49.5996 41.97834,-63.0591 15.23359,-5.17256 33.64101,3.60852 47.00585,-7.70448 10.16862,-12.00993 18.57507,-25.91369 31.62615,-35.14323 2.17293,-2.88663 3.76871,-6.34295 3.90737,-10.00259"
         id="path4463"
         inkscape:connector-curvature="0" />
      <path
         style="fill:none;stroke:#ffff93;stroke-width:3;stroke-linecap:round;stroke-linejoin:miter;stroke-miterlimit:4;stroke-opacity:1;stroke-dasharray:none"
         d="m 161,968.36218 c -1.75486,-17.78751 17.53149,-26.49166 32.48827,-26.94163 17.56067,-3.20808 22.78475,-26.35774 10.42907,-38.11326 -15.10052,-11.24072 -8.46082,-32.70995 4.35011,-42.80721 17.20473,-16.02372 17.34047,-42.07091 32.45178,-59.64168 13.48773,-19.08664 26.80199,-38.44903 41.83771,-56.32228 13.485,-11.0194 27.80698,-20.5982 39.44306,-33.17394"
         id="path4465"
         inkscape:connector-curvature="0" />
      <path
         style="fill:none;stroke:#ffff93;stroke-width:3;stroke-linecap:round;stroke-linejoin:miter;stroke-miterlimit:4;stroke-opacity:1;stroke-dasharray:none"
         d="m 206,978.36218 c 16.63319,-7.21252 35.97753,-10.7692 49.12834,-24.00788 7.47356,-13.00947 19.39449,-33.50882 4.07884,-45.47789 -12.20675,-9.97558 -11.76289,-30.36663 -1.42504,-41.60399 12.75287,-10.89586 20.68143,-25.84249 24.94497,-41.9198 7.23548,-19.36124 12.7591,-39.57757 22.06499,-57.97479 2.33637,-9.15276 3.88258,-18.82383 5.2079,-28.01565"
         id="path4467"
         inkscape:connector-curvature="0" />
      <path
         style="fill:none;stroke:#ffff93;stroke-width:3;stroke-linecap:round;stroke-linejoin:miter;stroke-miterlimit:4;stroke-opacity:1;stroke-dasharray:none"
         d="m 230,913.36218 c 0.74701,-20.58288 17.06162,-35.90656 28.21479,-51.71327 15.4058,-13.89821 40.6388,-5.75357 54.25058,-22.63958 13.3599,-12.0076 19.50257,-28.64301 24.49027,-45.37641 7.99077,-12.50849 14.12544,-25.93315 18.38939,-40.249 l 0.80489,-2.02034 0.85008,-2.0014"
         id="path4469"
         inkscape:connector-curvature="0" />
      <path
         style="fill:none;stroke:#ffff93;stroke-width:3;stroke-linecap:round;stroke-linejoin:miter;stroke-miterlimit:4;stroke-opacity:1;stroke-dasharray:none"
         d="m 109,844.36218 c -2.40731,-19.46976 9.55527,-39.44245 29.27202,-43.475 15.93902,-8.13547 33.65512,-11.72903 49.69896,-19.33704 16.83958,-8.36947 34.87566,-13.98241 52.18583,-21.1027 22.85057,-13.54801 28.23078,-42.48606 28.85407,-66.96426 -0.0413,-7.03861 -0.70907,-14.20816 0.98912,-21.121"
         id="path4471"
         inkscape:connector-curvature="0" />
      <path
         style="fill:none;stroke:#ffff93;stroke-width:3;stroke-linecap:round;stroke-linejoin:miter;stroke-miterlimit:4;stroke-opacity:1;stroke-dasharray:none"
         d="m 145,893.36218 c 2.72352,-20.85787 18.54528,-36.50792 31.71613,-51.62861 17.94841,-18.04772 36.4777,-40.12652 63.74521,-42.27386 17.70146,0.3314 36.78127,-6.2382 42.72109,-24.6642 2.95692,-6.69516 8.56489,-16.10489 11.81757,-20.43333"
         id="path4473"
         inkscape:connector-curvature="0" />
    </g>
    <g
       id="g4475"
       transform="translate(14.17391,-4.086957)"
       style="stroke:#ffff00;stroke-width:5;stroke-miterlimit:4;stroke-opacity:1;stroke-dasharray:none;filter:url(#filter4501)">
      <path
         sodipodi:nodetypes="czzzzzc"
         transform="translate(0,540.36218)"
         inkscape:connector-curvature="0"
         id="path4477"
         d="m 293.49594,99.804876 c 0,0 -106.9657,67.505214 -182.11383,134.959354 -75.148124,67.45414 -40.558219,90.27193 -28.45528,123.57723 12.102939,33.30529 1.626021,24.79675 43.90244,73.98375 42.27643,49.18699 157.15313,48.90029 154.47154,3.25203 -2.68159,-45.64826 55.20549,-8.24727 64.22764,-113.00814 9.02215,-104.76087 77.23578,-189.43089 77.23578,-189.43089"
         style="fill:none;stroke:#ffff00;stroke-width:5;stroke-linecap:round;stroke-linejoin:miter;stroke-miterlimit:4;stroke-opacity:1;stroke-dasharray:none" />
      <path
         inkscape:connector-curvature="0"
         id="path4479"
         d="m 126,905.36218 c -4.29537,-52.54921 21.14366,-101.55308 48.73411,-144.41288 15.08064,-21.76195 37.55527,-36.49365 56.402,-54.61282 4.0431,-3.32173 8.30431,-6.39715 12.86389,-8.9743"
         style="fill:none;stroke:#ffff00;stroke-width:5;stroke-linecap:round;stroke-linejoin:miter;stroke-miterlimit:4;stroke-opacity:1;stroke-dasharray:none" />
      <path
         inkscape:connector-curvature="0"
         id="path4481"
         d="m 135,944.36218 c -2.04545,-17.61246 5.36469,-38.13298 22.54309,-45.53699 14.27975,-12.22478 11.0613,-32.69805 10.14531,-49.32743 0.16627,-14.36436 4.15418,-29.25992 13.85775,-40.18586 15.7961,-0.82182 30.24557,-14.94677 29.93614,-31.04032 11.31267,-22.34415 19.15483,-49.5996 41.97834,-63.0591 15.23359,-5.17256 33.64101,3.60852 47.00585,-7.70448 10.16862,-12.00993 18.57507,-25.91369 31.62615,-35.14323 2.17293,-2.88663 3.76871,-6.34295 3.90737,-10.00259"
         style="fill:none;stroke:#ffff00;stroke-width:5;stroke-linecap:round;stroke-linejoin:miter;stroke-miterlimit:4;stroke-opacity:1;stroke-dasharray:none" />
      <path
         inkscape:connector-curvature="0"
         id="path4483"
         d="m 161,968.36218 c -1.75486,-17.78751 17.53149,-26.49166 32.48827,-26.94163 17.56067,-3.20808 22.78475,-26.35774 10.42907,-38.11326 -15.10052,-11.24072 -8.46082,-32.70995 4.35011,-42.80721 17.20473,-16.02372 17.34047,-42.07091 32.45178,-59.64168 13.48773,-19.08664 26.80199,-38.44903 41.83771,-56.32228 13.485,-11.0194 27.80698,-20.5982 39.44306,-33.17394"
         style="fill:none;stroke:#ffff00;stroke-width:5;stroke-linecap:round;stroke-linejoin:miter;stroke-miterlimit:4;stroke-opacity:1;stroke-dasharray:none" />
      <path
         inkscape:connector-curvature="0"
         id="path4485"
         d="m 206,978.36218 c 16.63319,-7.21252 35.97753,-10.7692 49.12834,-24.00788 7.47356,-13.00947 19.39449,-33.50882 4.07884,-45.47789 -12.20675,-9.97558 -11.76289,-30.36663 -1.42504,-41.60399 12.75287,-10.89586 20.68143,-25.84249 24.94497,-41.9198 7.23548,-19.36124 12.7591,-39.57757 22.06499,-57.97479 2.33637,-9.15276 3.88258,-18.82383 5.2079,-28.01565"
         style="fill:none;stroke:#ffff00;stroke-width:5;stroke-linecap:round;stroke-linejoin:miter;stroke-miterlimit:4;stroke-opacity:1;stroke-dasharray:none" />
      <path
         inkscape:connector-curvature="0"
         id="path4487"
         d="m 230,913.36218 c 0.74701,-20.58288 17.06162,-35.90656 28.21479,-51.71327 15.4058,-13.89821 40.6388,-5.75357 54.25058,-22.63958 13.3599,-12.0076 19.50257,-28.64301 24.49027,-45.37641 7.99077,-12.50849 14.12544,-25.93315 18.38939,-40.249 l 0.80489,-2.02034 0.85008,-2.0014"
         style="fill:none;stroke:#ffff00;stroke-width:5;stroke-linecap:round;stroke-linejoin:miter;stroke-miterlimit:4;stroke-opacity:1;stroke-dasharray:none" />
      <path
         inkscape:connector-curvature="0"
         id="path4489"
         d="m 109,844.36218 c -2.40731,-19.46976 9.55527,-39.44245 29.27202,-43.475 15.93902,-8.13547 33.65512,-11.72903 49.69896,-19.33704 16.83958,-8.36947 34.87566,-13.98241 52.18583,-21.1027 22.85057,-13.54801 28.23078,-42.48606 28.85407,-66.96426 -0.0413,-7.03861 -0.70907,-14.20816 0.98912,-21.121"
         style="fill:none;stroke:#ffff00;stroke-width:5;stroke-linecap:round;stroke-linejoin:miter;stroke-miterlimit:4;stroke-opacity:1;stroke-dasharray:none" />
      <path
         inkscape:connector-curvature="0"
         id="path4491"
         d="m 145,893.36218 c 2.72352,-20.85787 18.54528,-36.50792 31.71613,-51.62861 17.94841,-18.04772 36.4777,-40.12652 63.74521,-42.27386 17.70146,0.3314 36.78127,-6.2382 42.72109,-24.6642 2.95692,-6.69516 8.56489,-16.10489 11.81757,-20.43333"
         style="fill:none;stroke:#ffff00;stroke-width:5;stroke-linecap:round;stroke-linejoin:miter;stroke-miterlimit:4;stroke-opacity:1;stroke-dasharray:none" />
    </g>
  </g>
</svg>
